<?xml version="1.0" encoding="UTF-8"?>
<svg viewBox="0 0 300 630" xmlns="http://www.w3.org/2000/svg">
 <defs>
  <filter id="k">
   <feGaussianBlur stdDeviation="3.608825"/>
  </filter>
  <filter id="i">
   <feGaussianBlur stdDeviation="0.748851"/>
  </filter>
  <filter id="j">
   <feGaussianBlur stdDeviation="3.332429"/>
  </filter>
  <filter id="h">
   <feGaussianBlur stdDeviation="2.241924"/>
  </filter>
  <filter id="g">
   <feGaussianBlur stdDeviation="3.215741"/>
  </filter>
  <linearGradient id="l" x1="-.3609" x2=".83026" y1="-.513" y2=".74587">
   <stop stop-color="#fff" offset="0"/>
   <stop stop-color="#fff" stop-opacity="0" offset="1"/>
  </linearGradient>
 </defs>
 <g fill-rule="evenodd">
  <path d="m28 38.742s61.429 88.144 53.571 141.17c16.429-2.0659 15-2.4102 15-2.4102s16.786 13.084 16.071 41.662c11.786 0 18.214 1.033 18.214 1.033s23.153-11.171 64.939 6.0449c1.7857-4.4761 8.6808-28.41 19.347-17.752 44.286 32.021 24.286 395.96 24.286 395.96s0.98764 20.939 14.286 17.216c-7.2326-258.96 118.93-528.68-132.86-586.71-86.141-9.1712-93.214 3.7874-92.857 3.7874z" fill="#dda835" stroke="#000"/>
  <path d="m36.214 40.119c1.4286 0.34433 51.429 88.144 52.143 124.99 0.17972 9.2693 0.35715 6.1976 2.8572 6.1976s6.3399-1.3052 7.8572 0.34432c16.786 18.249 18.571 40.629 18.571 40.629 12.117-6.2164 54.276-1.8312 73.571 4.4761 0.71426 7.9192 9.6428-12.395 9.6428-12.395s18.214-11.362 26.071 10.674c11.02 30.908 18.929 60.944 22.5 67.486 3.5714 6.542 22.857 44.761 22.857 44.761s4.4921-137.09-16.786-182.14c-4.6775-9.9035-40.357-119.82-219.29-105.02z" fill="#b70000" fill-opacity=".35" stroke="#500" stroke-opacity=".395"/>
  <g stroke="#000">
   <path d="m21.394 391.29c0 3.4086-3.0304 26.781-2.5254 32.138 0.50507 5.3562 0.50507 14.608 1.5152 19.964 1.0102 5.3563 1.5152 15.095 1.5152 19.477v37.007c0 11.686-2.0203 18.504-2.0203 25.807 0 7.304-0.50508 11.2-0.50508 15.095 0 3.8954 3.5355 12.66 3.5355 12.66s2.0203-8.7648 5.0508-21.425-2.5254-15.582 6.566-23.86c9.0914-8.2779 4.5457-12.66 13.132-11.2 8.5863 1.4608 13.132 6.8171 17.173 9.2518 4.0406 2.4346 8.0812 2.4346 10.607 3.4085 2.5254 0.97385 11.112 5.8432 19.193 6.817 8.0812 0.97388 43.942 8.2779 52.023 8.2779h52.528c6.0609 0 30.305 0.97382 33.335 0.97382 3.0305 0 45.457-2.4346 45.457-2.4346s-41.921-89.109-62.63-113.94c-20.708-24.834-26.264-29.216-37.376-34.085-11.112-4.8693-20.203-12.173-31.82-15.095-11.617-2.9216-19.698-9.7386-40.911-9.7386s-25.759-4.3824-41.416 0-16.668-4.3824-23.739 8.7648c-7.0711 13.147-10.102 19.477-13.132 24.834-3.0305 5.3563-4.5457 7.791-5.5558 7.304z"/>
   <path d="m153.75 216.6c-6.4415-0.04039-13.182 0.22284-20.219 0.84357-86.778 1.3715-104.98 106.17-108.86 121.91-2.6948 5.5687-8.5055 43.803-9.8839 53.343 0.27568 48.139 1.1126 100.26-2.5045 149.07-0.89847 14.84-0.8306 29.675-2.5 44.438-0.35714 8.2635 0.72768 9.6408 2.1562 14.461 1.4286 4.8204 6.4196 10.321 8.5625 8.2549 2.1429-2.0659 3.2188-25.466 5.7188-38.894 2.0244-44.033 0.89809-89.108 0-133.95-4.5576-12.698-5.19-38.99 6.7812-48.565 5.0519-2.2139 10.791 3.9732 12.866 7.5921 4.4458 22.715 1.4488 16.189 1.7857 38.546-2.5 17.216-5 41.688-5 47.197-1.9569 5.7819 0.27612 7.5926 1.4107 14.1 3.5714 2.4102-0.35714-3.796 5.7143-1.3859 3.382-4.0662 5.2638-5.2681 6.442-11.001 0.71429-7.9192 1.7723-11.371 3.2009-15.158 1.8848-7.0966 3.2366-15.415 3.2366-22.712 0.009201-7.4755 1.9819-13.192 2.125-20.663 0.14646-5.9674-0.31157-11.935 0-17.896 6.9605-13.912 22.698-17.702 37.156-20.336 1.4286 0 7.1428-0.67142 9.6428 0.36154 9.389-40.793 4.4445 2.9699 8.2009 0.6929 2.1428-1.3772 3.2143-0.71014 5-1.0544 1.7857-0.34433 5.0089 1.0544 6.4375 1.0544s2.8482 0.68436 6.0625 1.7173 2.8572 1.0329 5 2.4102c2.1428 1.3772 2.8705 2.0702 4.6562 3.1031 1.7857 1.033 3.2143 1.3772 5 2.4102s2.1339 2.0401 3.5625 3.073 1.0759 1.0415 3.2188 3.796c2.1428 2.7545 1.433 1.3772 3.2188 4.8204 1.7857 3.4432 1.0759 1.713 3.2188 3.4345 2.1428 1.7215 2.8393 2.0745 2.125 3.796-0.71429 1.7216-3.2188 0.36151-3.2188 0.36151s-2.1384 1.713-4.2812 3.4345c-2.1428 1.7216-1.7768 2.4188-3.5625 3.796s-2.8482 2.0659-6.0625 2.4102-7.8661 3.073-11.438 3.073c-3.3917 1.2994-15.976 3.6239-19.775 4.2613-3.7996 0.63733-3.1008 9.9168-7.4269 18.928-3.2547-9.237-1.1772-19.431-5.0769-19.865-3.8997-0.43436-9.8479-1.0946-13.44-1.9388-5-1.3772-8.5625-0.6929-8.5625-0.6929 1.0714 0 0.71428 5.5262 0 10.002-3.0209 8.6956-3.7279 17.098-3.5625 26.151-0.11111 28.936-0.99641 57.842-1.8125 86.767 0 2.066-6.0491 59.588-1.4062 63.72 45.993-17.286 108.03-60.647 143.41-87.279 1.2005 0.96655 2.4762 1.6654 3.875 2.0186 21.213 5.3563 54.559-0.48206 61.125-0.48206s4.0473-4.8919 5.5625-9.7613c1.5152-4.8693-11.611-17.046-19.188-32.628-7.5761-15.582-9.0914-45.271 0-100.29 8.4783-96.858-22.065-170.19-118.69-170.79z" fill="#917445"/>
  </g>
  <path d="m124.43 220.19s102.86-22.725 133.57 59.222c18.271 47.146 17.041 90.344 8.5714 139.1-1.4715 6.7386-7.8572 56.467 7.8572 77.126 6.4477 8.4764 15.714 29.611 15.714 29.611s-100.72 4.9091-57.857-10.329c20.753-11.29 22.36-9.3968 21.636-33.603-0.72385-24.206-3.7787-74.512-6.6358-88.284-15-24.102-45.714-13.773-45.714-35.12s-19.286-4.8204-40.714-34.431c-21.429-29.611 9.2857-44.072-12.857-53.713-22.143-9.6408-6.4286-25.479-13.571-31.677-7.1429-6.1976-36.429-17.904-10-17.904z" fill-opacity=".043" filter="url(#h)"/>
  <path d="m123.71 218.13c13.571 8.9521 35.237 7.2121 63.571 22.725 22.626 12.387 21.429 26.856 30.714 35.809 9.2857 8.9521 21.429 29.611 21.429 29.611s2.8572-14.461 2.8572-19.282c0-4.8204-3.5714-19.282-7.1429-26.168-3.5714-6.8863-14.286-25.479-18.571-27.545-4.2857-2.0659-22.143-20.659-92.857-15.15z" fill-opacity=".049" filter="url(#j)"/>
  <path d="m114.16 224.58s9.5656 3.9478 20.387 13.398c8.5467 7.4636-4.5816 16.34 7.5402 29s15.79 7.0912 13.724 12.758c-2.9621 8.1256-3.0918 32.669-1.0714 37.539 2.0203 4.8693 14.142 12.66 15.152 19.477 1.0102 6.8171 3.0305 18.504-2.0203 15.582-5.0508-2.9216 3.0305 7.7909-19.193 3.8955-22.223-3.8955-44.447-11.686-52.528-22.399-8.0812-10.712-15.152-25.32-15.152-25.32s7.0711-19.477-10.102 2.9216-15.152 17.53-25.254 30.19-12.122 14.608-19.193 20.451c-7.0711 5.8432-4.0406-7.791-4.0406-7.791s13.927-100.8 72.67-127.92c44.599-16.713 13.305-0.40338 19.081-1.7806z" fill="#fff8d5" fill-opacity=".093" filter="url(#i)"/>
  <path d="m74.402 282.76c-15.774 0.83814-49.969 59.321-49.969 59.321s-8.5142 35.09-9.4866 50.45l0.2054 108.62s-3.9375 92.947-1.0804 97.079c2.8572 4.1317 4.3346 9.2918 4.6339 0.3443 0.35714-10.674 3.9375-44.761 3.9375-44.761l1.0759-114.98c0 3.1e-5 -4.9955-11.38-3.567-26.529 1.4286-15.15 7.8438-26.151 7.8438-26.151l1.7812-4.1576c12.455-5.1042 21.106 9.2536 22.5 16.54 1.3397 7.0031-6.2686 68.187-7.1562 82.82-0.88761 14.633 5.4504 2.7546 8.25-6.0255 0 0 6.7812-48.212 6.7812-76.102 20-24.102 51.062-23.766 51.062-23.766s5.6606-12.329 7.087-12.022c1.4264 0.30771 1.1184 13.941 3.6098 14.633 4.9828 1.3838 11.734 1.2025 18.81 4.5827 14.151 6.7604 29.596 18.126 34.775 36.547-4.1964 6.1116-11.808 10.329-20.866 13.218-9.0573 2.8886-22.774 4.4482-32.753 5.2439-4.9891 0.39786-4.4899 10.246-10.756 20.661-3.4092-4.3896-4.2981-19.573-7.7776-19.657-6.9591-0.16718-16.066-0.87756-16.066-0.87756s-5.4413 155.84-2.8438 166.64c2.6561 11.037 165-108.1 165-108.1s2.1339-107.42-11.438-100.54c-14.552 7.3837-162.12-112.95-162.12-112.95-0.46875-0.096832-0.95991-0.11743-1.4688-0.090393z" fill="#ffac30" stroke="#000"/>
  <path d="m105.14 222.95s-52.143 14.117-74.286 96.408c-2.4674 9.1698 25.153-41.217 38.929-42.006 27.684-1.5867 7.1429 7.5749 23.571 8.6078 16.429 1.0329 35.357-2.7545 36.786-11.018 1.4286-8.2635-10.689-20.974-5-25.479 59.643-47.171-18.929-25.479-20-26.512z" fill="url(#l)" filter="url(#g)"/>
  <path d="m74.071 290.78c10 7.2306 146.07 113.62 155 111.9 8.9286-1.7215 6.7857-6.8863 9.6428-1.3772 2.8572 5.509 8.5714 88.833 3.9286 92.965-4.6428 4.1318-153.57 106.05-153.57 106.05s-0.35715-156.32 2.8572-156.32c3.2143 0 6.0714-2.4102 8.2143-0.34433 2.1428 2.0659 5.3571-1.0329 5.3571-1.0329l5 15.494 7.5-14.461s48.214 1.3773 62.857-22.725c-6.0735-26.96-35.277-41.746-60-48.548-1.4286-9.9851-2.5-9.2965-2.5-9.2965l-4.6429 6.542s-28.929 2.0659-41.429 12.395-15.357 15.15-15.357 15.15-9.9273-19.97-17.857-19.97c-16.096-0.86435-18.66 17.597-22.143 29.611 0 7.5749 0-3.4432 1.0714-12.051s6.3286-45.809 10.714-52.68c17.143-26.856 46.071-51.303 45.357-51.303z" fill="#5d3400" fill-opacity=".975" filter="url(#k)" opacity=".225"/>
 </g>
</svg>
